<?xml version="1.0" encoding="UTF-8"?>
<svg id="Layer_1" data-name="Layer 1" xmlns="http://www.w3.org/2000/svg" viewBox="0 0 690.21 690.21">
  <defs>
    <style>
      .cls-1 {
        fill: #590003;
      }

      .cls-2 {
        fill: #ed0000;
      }

      .cls-3 {
        opacity: .4;
      }

      .cls-4 {
        fill: #fff4a1;
      }
    </style>
  </defs>
  <g>
    <rect class="cls-1" x=".63" y=".63" width="688.96" height="688.96"/>
    <path class="cls-2" d="M690.21,690.21H0V0h690.21v690.21ZM1.26,688.96h687.7V1.26H1.26v687.7Z"/>
  </g>
  <g>
    <g>
      <rect class="cls-1" x="14.52" y="14.52" width="661.18" height="661.18"/>
      <path class="cls-2" d="M676.7,676.7H13.52V13.52h663.18v663.18ZM15.52,674.7h659.18V15.52H15.52v659.18Z"/>
    </g>
    <g>
      <path class="cls-2" d="M676.32,676.32H13.89V13.89h662.43v662.43ZM15.15,675.07h659.92V15.15H15.15v659.92Z"/>
      <path class="cls-2" d="M677.32,677.32H12.89V12.89h664.43v664.43ZM16.15,674.07h657.92V16.15H16.15v657.92Z"/>
    </g>
  </g>
  <g class="cls-3">
    <g>
      <g>
        <path class="cls-2" d="M435.05,299.24c-6.98-3.01,4.04-26.95,8.2-73.79.49-5.56,1.26-15.56,8.2-24.6,6.42-8.35,15.15-12.04,19.13-13.66,10.98-4.48,14.18-1.07,30.06-5.47,9.37-2.59,15.83-5.83,17.76-6.83,10.4-5.37,16.25-8.39,20.5-15.03,2.41-3.77,3.56-7.5,8.2-10.93,1.42-1.05,5.49-4.06,8.2-2.73,2.8,1.37,2.43,6.55,2.73,13.66.22,5.19-.18-11.63,2.73,21.86,1.89,21.7,2.83,32.55,2.73,35.53-.92,27.76-17.24,48.73-21.86,54.66-9.57,12.29-20.17,19.29-40.99,32.8-23.89,15.49-39.97,23.49-49.19,27.33-2.35.98-34.36,14.2-36.89,9.57-.25-.46-.75-2.08,8.2-10.93,11.4-11.27,21.59-17.91,27.33-21.86,14.49-9.97,24.6-19.31,27.33-21.86,13.93-13.05,21.93-24.2,30.06-35.53,9.04-12.6,16.75-23.5,13.66-27.33-1.98-2.46-7.82-1.24-10.93,0-5.27,2.1-7.86,6.29-10.93,10.93-4.32,6.54-9.23,12.67-13.66,19.13-6.26,9.12-14.19,16.1-30.06,30.06-12.14,10.68-18.25,16-20.5,15.03Z"/>
        <path class="cls-2" d="M417.43,342.79c-1.59,0-2.69-.32-3.1-1.07-.27-.49-1.09-2,8.24-11.23,10.45-10.33,20.07-16.91,25.82-20.83.54-.37,1.06-.72,1.54-1.06,13.09-9.01,22.72-17.55,27.3-21.84,13.92-13.04,21.74-23.94,30.03-35.49,8.21-11.44,16.7-23.27,13.67-27.03-1.85-2.3-7.51-1.17-10.64.08-4.98,1.98-7.5,5.82-10.43,10.26l-.38.58c-2.4,3.63-5.02,7.18-7.55,10.63-2.04,2.77-4.14,5.63-6.12,8.51-6.28,9.14-14.24,16.15-30.1,30.11-13.04,11.47-18.43,16.08-20.76,15.07-4.01-1.73-2.41-9.78.5-24.39,2.39-12.02,5.67-28.48,7.55-49.65l.03-.33c.51-5.79,1.37-15.48,8.22-24.4,6.59-8.58,15.78-12.33,19.23-13.74,5.68-2.32,9.35-2.54,13.61-2.81,4.12-.25,8.78-.54,16.48-2.67,6.28-1.74,12.57-4.16,17.72-6.81,10.44-5.39,16.19-8.36,20.4-14.94.61-.95,1.14-1.91,1.66-2.84,1.59-2.86,3.09-5.56,6.6-8.16,1.54-1.14,5.62-4.15,8.46-2.76,2.49,1.23,2.61,5.19,2.77,10.68.03,1.01.06,2.07.11,3.18.01,0,.02,0,.03,0,.38,0,.8.01,2.7,21.87,1.89,21.68,2.83,32.56,2.73,35.56-.61,18.48-7.98,36.92-21.92,54.8-9.79,12.57-20.9,19.77-41.06,32.85-24.37,15.81-40.22,23.6-49.23,27.35-2.98,1.24-25.55,10.52-34.11,10.52ZM517.02,222.41c1.81,0,3.42.41,4.31,1.52,3.04,3.77-3.43,13.39-13.66,27.63-8.3,11.57-16.14,22.5-30.09,35.56-4.59,4.3-14.24,12.86-27.36,21.89-.48.33-1,.69-1.54,1.06-5.73,3.92-15.33,10.48-25.75,20.78-8.18,8.09-8.43,10.13-8.15,10.63,1.96,3.58,24.79-4.76,36.58-9.68,8.99-3.74,24.82-11.52,49.15-27.31,20.11-13.05,31.19-20.23,40.93-32.74,13.87-17.8,21.21-36.14,21.81-54.51.1-2.96-.85-13.84-2.73-35.5-1.22-14.04-1.85-19.06-2.17-20.74-.04.12-.11.22-.25.2q-.26,0-.31-1.34c-.05-1.12-.08-2.19-.11-3.2-.15-5.32-.26-9.16-2.49-10.25-2.57-1.27-6.61,1.73-7.94,2.71-3.42,2.53-4.9,5.19-6.46,8-.52.94-1.06,1.9-1.67,2.86-4.28,6.7-10.08,9.69-20.59,15.12-5.17,2.67-11.5,5.1-17.81,6.85-7.75,2.15-12.44,2.43-16.58,2.69-4.21.26-7.85.48-13.45,2.77-3.42,1.4-12.52,5.11-19.03,13.59-6.76,8.81-7.61,18.4-8.12,24.14l-.03.33c-1.88,21.19-5.16,37.67-7.56,49.7-2.86,14.36-4.43,22.27-.79,23.84,2.16.92,8.96-5.07,20.23-14.99,15.83-13.93,23.78-20.92,30.02-30.02,1.98-2.88,4.09-5.75,6.13-8.52,2.53-3.44,5.14-6.99,7.53-10.6l.38-.58c2.97-4.51,5.54-8.41,10.67-10.45,1.91-.76,4.58-1.44,6.91-1.44Z"/>
      </g>
      <g>
        <path class="cls-2" d="M400.89,368.93c-.41,1.8,12.74,5.2,32.8,13.66,11.6,4.9,24.11,10.17,38.26,19.13,18.18,11.51,16.65,14.9,27.33,19.13,18.91,7.5,37.65,2.4,46.46,0,3.78-1.03,8.66-2.6,46.46-24.6,29.44-17.13,31.78-19.27,40.99-21.86,18.51-5.22,31.28-2.87,32.8-8.2,1.36-4.77-7.6-11.11-19.13-19.13-19.49-13.55-37.45-21.66-51.93-27.33-19.4-7.6-29.1-11.4-38.26-10.93-16.63.86-29.9,9.32-40.99,16.4-13.78,8.79-18.16,15.29-32.8,21.86-4.67,2.1-11.49,5.11-20.93,6.69-7.44,1.24-11.8.81-11.86,1.51-.13,1.44,17.87,7.39,38.26,5.47,16.16-1.53,17.48-6.46,40.99-10.93,9.25-1.76,18.28-3.41,30.06-2.73,17.41,1.01,35.78,6.82,35.53,10.93-.17,2.87-9.43,4.87-13.66,5.47-5.47.76-9.7.17-10.93,0,0,0-13.73-1.85-35.53,0-14.23,1.21-13.36,4.89-30.06,8.2-18.74,3.71-34.86,2.05-54.66,0-12.48-1.29-19.25-1.77-32.8-2.73-12.02-.85-16.17-.99-16.4,0Z"/>
        <path class="cls-2" d="M520.75,425.05c-6.77,0-14.14-1.02-21.56-3.96-5.58-2.21-7.86-4.2-11.3-7.21-3.1-2.71-7.35-6.42-16.08-11.95-14.13-8.94-26.38-14.11-38.22-19.11-8.54-3.6-15.93-6.33-21.33-8.32-8.84-3.26-11.89-4.45-11.62-5.63l.24.06-.24-.06c.26-1.13,3.06-1.16,16.66-.19,13.53.96,20.32,1.44,32.8,2.73,20.05,2.07,35.88,3.71,54.58,0,7.77-1.54,11.7-3.15,15.17-4.57,3.91-1.6,7.29-2.98,14.92-3.63,21.47-1.83,35.02-.08,35.58,0,1.41.19,5.52.75,10.87,0,5.12-.71,13.3-2.77,13.45-5.23.03-.41-.18-.87-.62-1.36-3.23-3.63-18.75-8.39-34.68-9.31-11.99-.7-21.15,1.05-30,2.73-11.62,2.21-17.69,4.49-23.05,6.5-5.46,2.05-9.77,3.67-17.97,4.44-19.13,1.81-36.34-3.29-38.3-5.24-.17-.17-.25-.33-.23-.49.05-.56.93-.62,3.29-.77,1.99-.13,5.01-.33,8.78-.96,9.61-1.61,16.66-4.77,20.87-6.67,8.91-4,13.95-7.93,19.77-12.48,3.75-2.92,7.62-5.94,12.99-9.37,10.88-6.94,24.42-15.58,41.12-16.44,9.23-.48,18.96,3.34,38.37,10.95,12.42,4.87,31.33,13,51.98,27.36,11.09,7.71,20.66,14.37,19.23,19.4-.91,3.19-5.34,3.73-12.69,4.62-5.48.67-12.31,1.5-20.28,3.75-7.24,2.04-10.04,3.69-25.61,12.86-4.06,2.39-9.12,5.37-15.32,8.98-38.61,22.47-43,23.66-46.52,24.62-5.46,1.49-14.52,3.95-25.05,3.95ZM404.33,368.49c-1.97,0-3.12.14-3.2.5-.19.82,4.88,2.69,11.3,5.05,5.41,1.99,12.81,4.72,21.35,8.32,11.87,5.01,24.13,10.18,38.3,19.15,8.76,5.55,13.02,9.27,16.14,11.99,3.4,2.97,5.65,4.94,11.15,7.12,18.83,7.47,37.39,2.42,46.3,0,3.49-.95,7.84-2.14,46.4-24.57,6.21-3.61,11.26-6.59,15.32-8.98,15.26-8.98,18.43-10.85,25.73-12.91,8.01-2.26,14.85-3.09,20.35-3.76,6.9-.84,11.45-1.4,12.27-4.27,1.34-4.7-8.1-11.26-19.03-18.86-20.61-14.32-39.47-22.44-51.87-27.3-19.34-7.58-29.04-11.38-38.16-10.92-16.56.85-30.04,9.45-40.87,16.36-5.35,3.41-9.21,6.43-12.95,9.34-5.85,4.57-10.91,8.51-19.88,12.54-4.23,1.9-11.32,5.09-21,6.7-3.8.63-6.82.84-8.83.97-1.37.09-2.67.18-2.84.36.39,1.27,18.05,7.04,38,5.15,8.13-.77,12.42-2.38,17.84-4.41,5.38-2.02,11.47-4.3,23.13-6.52,8.88-1.69,18.07-3.43,30.12-2.74,14.67.85,31.37,5.37,35.02,9.48.53.59.77,1.17.74,1.72-.23,3.75-13.74,5.68-13.88,5.7-5.41.76-9.57.19-10.94,0-.62-.08-14.12-1.83-35.53,0-7.55.64-10.9,2.01-14.77,3.6-3.49,1.43-7.45,3.05-15.26,4.6-18.77,3.72-34.64,2.08-54.73,0-12.48-1.29-19.27-1.77-32.79-2.73-5.51-.39-10.08-.69-12.93-.69Z"/>
      </g>
      <g>
        <path class="cls-2" d="M433.68,202.22c2.47,1.14,5.59-10.77,19.13-19.13,11.51-7.11,21.21-5.89,24.6-13.66,1.04-2.38.43-3.19,0-10.93-.99-17.86,1.83-20.92,0-35.53-.22-1.75-.92-7-2.73-13.66-3.11-11.46-5.46-20.11-10.93-21.86-1.73-.55-5.18-.87-19.13,10.93-9.6,8.12-11.6,11.35-24.6,24.6-12.03,12.27-16.74,16.06-19.13,24.6-2.22,7.94-.39,12.7,0,13.66,2.26,5.54,6.28,6.2,10.93,10.93,10.13,10.29,8.37,24.7,10.93,24.6,1.77-.07,2.35-6.95,5.47-21.86,2.28-10.89,3.42-16.34,5.47-21.86,4.82-12.98,13.52-25.7,16.4-24.6,2.36.91.48,11.07,0,13.66-1.93,10.39-5.83,17.12-8.2,21.86-8.57,17.15-11.29,36.83-8.2,38.26Z"/>
        <path class="cls-2" d="M434.02,202.55c-.15,0-.3-.03-.45-.1h0c-.4-.18-.71-.6-.94-1.25-1.58-4.52,1.21-21.72,9.02-37.35.28-.56.58-1.15.9-1.77,2.36-4.6,5.59-10.9,7.28-20.03,2.02-10.92.97-13.07.16-13.39-.25-.1-.58-.05-.99.13-3.37,1.52-10.69,12.48-15.09,24.32-2.04,5.51-3.18,10.96-5.46,21.82-.91,4.35-1.61,8.05-2.17,11.02-1.47,7.77-2.08,10.98-3.53,11.04-.01,0-.03,0-.04,0-1.1,0-1.46-1.84-2.06-4.87-.97-4.96-2.59-13.27-9.02-19.8-1.7-1.73-3.35-2.93-4.8-4-2.54-1.85-4.73-3.46-6.18-7.02-.69-1.7-2.08-6.44,0-13.83,2.09-7.45,6.04-11.43,14.72-20.17,1.37-1.38,2.86-2.88,4.48-4.53,4.46-4.54,7.66-7.96,10.24-10.7,5.03-5.35,8.06-8.57,14.38-13.92,14.73-12.46,17.86-11.46,19.37-10.98,5.6,1.79,7.91,10.28,11.1,22.04,1.24,4.58,2.19,9.32,2.74,13.7.97,7.75.64,12.24.25,17.44-.34,4.55-.72,9.71-.25,18.11.13,2.33.27,4,.39,5.34.26,3.06.34,3.98-.41,5.7-2.05,4.7-6.38,6.19-11.86,8.08-3.83,1.32-8.16,2.81-12.83,5.7-8.19,5.05-12.62,11.52-15.26,15.38-1.6,2.34-2.65,3.86-3.66,3.87ZM449.7,128.11c.17,0,.32.03.47.08,1.72.66,1.77,5.22.16,13.94-1.71,9.2-4.95,15.54-7.33,20.17-.32.62-.62,1.2-.9,1.76-7.75,15.52-10.55,32.53-8.99,36.97.18.51.41.83.68.96h0c.79.37,1.85-1.21,3.48-3.59,2.67-3.9,7.13-10.41,15.41-15.53,4.72-2.91,9.08-4.42,12.93-5.74,5.37-1.85,9.61-3.31,11.57-7.81.7-1.6.63-2.42.37-5.46-.11-1.27-.26-3.02-.39-5.36-.47-8.43-.08-13.61.25-18.17.38-5.17.71-9.63-.25-17.34-.55-4.36-1.49-9.07-2.73-13.63-3.03-11.16-5.42-19.98-10.77-21.69-1.31-.42-4.37-1.4-18.89,10.88-6.29,5.32-9.32,8.54-14.33,13.88-2.58,2.74-5.79,6.16-10.25,10.7-1.62,1.65-3.11,3.15-4.48,4.53-8.87,8.94-12.54,12.64-14.59,19.96-2.03,7.24-.68,11.85,0,13.5,1.4,3.43,3.44,4.92,6.01,6.8,1.47,1.07,3.13,2.29,4.86,4.05,6.54,6.64,8.18,15.04,9.16,20.05.49,2.49.87,4.47,1.57,4.47,0,0,0,0,.01,0,1.05-.04,1.81-4.03,3.06-10.63.56-2.98,1.26-6.68,2.17-11.03,2.28-10.89,3.42-16.36,5.48-21.9,4.12-11.11,11.44-22.84,15.35-24.6.33-.15.63-.22.9-.22Z"/>
      </g>
    </g>
    <g>
      <g>
        <path class="cls-2" d="M267.63,297.9c6.98-3.01-4.04-26.95-8.2-73.79-.49-5.56-1.26-15.56-8.2-24.6-6.42-8.35-15.15-12.04-19.13-13.66-10.98-4.48-14.18-1.07-30.06-5.47-9.37-2.59-15.83-5.83-17.76-6.83-10.4-5.37-16.25-8.39-20.5-15.03-2.41-3.77-3.56-7.5-8.2-10.93-1.42-1.05-5.49-4.06-8.2-2.73-2.8,1.37-2.43,6.55-2.73,13.66-.22,5.19.18-11.63-2.73,21.86-1.89,21.7-2.83,32.55-2.73,35.53.92,27.76,17.24,48.73,21.86,54.66,9.57,12.29,20.17,19.29,40.99,32.8,23.89,15.49,39.97,23.49,49.19,27.33,2.35.98,34.36,14.2,36.89,9.57.25-.46.75-2.08-8.2-10.93-11.4-11.27-21.59-17.91-27.33-21.86-14.49-9.97-24.6-19.31-27.33-21.86-13.93-13.05-21.93-24.2-30.06-35.53-9.04-12.6-16.75-23.5-13.66-27.33,1.98-2.46,7.82-1.24,10.93,0,5.27,2.1,7.86,6.29,10.93,10.93,4.32,6.54,9.23,12.67,13.66,19.13,6.26,9.12,14.19,16.1,30.06,30.06,12.14,10.68,18.25,16,20.5,15.03Z"/>
        <path class="cls-2" d="M285.25,341.45c-8.56,0-31.13-9.28-34.11-10.52-9.01-3.75-24.87-11.54-49.23-27.35-20.16-13.08-31.27-20.28-41.06-32.85-13.93-17.89-21.31-36.33-21.92-54.8-.1-2.99.85-13.86,2.73-35.51,1.9-21.9,2.33-21.9,2.71-21.91.01,0,.02,0,.03,0,.05-1.11.08-2.17.11-3.18.16-5.49.27-9.46,2.77-10.68,2.84-1.39,6.92,1.62,8.46,2.76,3.51,2.6,5.01,5.3,6.61,8.16.52.93,1.05,1.89,1.66,2.84,4.21,6.59,9.96,9.56,20.4,14.94,5.15,2.66,11.44,5.08,17.72,6.81,7.7,2.13,12.37,2.42,16.48,2.67,4.26.26,7.93.49,13.61,2.81,3.46,1.41,12.65,5.17,19.23,13.74,6.85,8.92,7.71,18.61,8.22,24.4l.03.33c1.88,21.17,5.16,37.63,7.55,49.65,2.91,14.61,4.51,22.67.5,24.39l-.1-.23.1.23c-2.35,1.01-7.73-3.6-20.76-15.07-15.86-13.96-23.83-20.97-30.1-30.11-1.98-2.88-4.09-5.74-6.12-8.51-2.53-3.44-5.15-7-7.54-10.62l-.39-.59c-2.93-4.44-5.46-8.27-10.43-10.25-3.13-1.25-8.8-2.37-10.65-.08-3.03,3.76,5.46,15.59,13.67,27.03,8.29,11.55,16.11,22.46,30.03,35.49,4.58,4.29,14.22,12.83,27.3,21.84.48.33,1,.69,1.54,1.06,5.75,3.93,15.37,10.5,25.82,20.83,9.34,9.23,8.51,10.73,8.24,11.23-.41.75-1.52,1.07-3.1,1.07ZM144.33,159.67c-.32,1.68-.94,6.7-2.17,20.74-1.89,21.68-2.83,32.54-2.73,35.5.61,18.37,7.94,36.71,21.81,54.51,9.74,12.5,20.82,19.69,40.93,32.74,24.34,15.79,40.16,23.56,49.15,27.31,11.79,4.91,34.62,13.26,36.58,9.68.27-.5.03-2.54-8.16-10.63-10.42-10.3-20.02-16.86-25.75-20.78-.55-.37-1.06-.72-1.54-1.06-13.11-9.02-22.77-17.59-27.36-21.89-13.95-13.07-21.79-24-30.09-35.57-10.22-14.24-16.69-23.86-13.66-27.63,2.03-2.52,7.82-1.43,11.22-.08,5.12,2.04,7.69,5.93,10.66,10.44l.39.59c2.39,3.61,5,7.16,7.53,10.6,2.04,2.77,4.15,5.64,6.13,8.53,6.24,9.09,14.19,16.08,30.02,30.01,11.28,9.93,18.1,15.91,20.24,14.99,3.64-1.57,2.07-9.48-.79-23.84-2.4-12.03-5.68-28.51-7.56-49.7l-.03-.33c-.51-5.73-1.35-15.33-8.12-24.14-6.51-8.47-15.6-12.19-19.03-13.59-5.6-2.29-9.24-2.51-13.45-2.77-4.14-.25-8.83-.54-16.58-2.69-6.31-1.75-12.63-4.18-17.81-6.85-10.52-5.43-16.31-8.42-20.59-15.12-.61-.96-1.15-1.93-1.67-2.86-1.56-2.81-3.04-5.47-6.46-8-1.33-.98-5.37-3.97-7.94-2.71-2.22,1.09-2.33,4.93-2.49,10.25-.03,1.02-.06,2.08-.11,3.2q-.06,1.33-.31,1.34c-.16.01-.22-.08-.25-.2Z"/>
      </g>
      <g>
        <path class="cls-2" d="M301.8,367.59c.41,1.8-12.74,5.2-32.8,13.66-11.6,4.9-24.11,10.17-38.26,19.13-18.18,11.51-16.65,14.9-27.33,19.13-18.91,7.5-37.65,2.4-46.46,0-3.78-1.03-8.66-2.6-46.46-24.6-29.44-17.13-31.78-19.27-40.99-21.86-18.51-5.22-31.28-2.87-32.8-8.2-1.36-4.77,7.6-11.11,19.13-19.13,19.49-13.55,37.45-21.66,51.93-27.33,19.4-7.6,29.1-11.4,38.26-10.93,16.63.86,29.9,9.32,40.99,16.4,13.78,8.79,18.16,15.29,32.8,21.86,4.67,2.1,11.49,5.11,20.93,6.69,7.44,1.24,11.8.81,11.86,1.51.13,1.44-17.87,7.39-38.26,5.47-16.16-1.53-17.48-6.46-40.99-10.93-9.25-1.76-18.28-3.41-30.06-2.73-17.41,1.01-35.78,6.82-35.53,10.93.17,2.87,9.43,4.87,13.66,5.47,5.47.76,9.7.17,10.93,0,0,0,13.73-1.85,35.53,0,14.23,1.21,13.36,4.89,30.06,8.2,18.74,3.71,34.86,2.05,54.66,0,12.48-1.29,19.25-1.77,32.8-2.73,12.02-.85,16.17-.99,16.4,0Z"/>
        <path class="cls-2" d="M181.94,423.71c-10.54,0-19.59-2.46-25.05-3.95-3.52-.96-7.91-2.15-46.52-24.62-6.21-3.61-11.26-6.59-15.32-8.98-15.57-9.17-18.38-10.82-25.61-12.86-7.97-2.25-14.79-3.08-20.28-3.75-7.35-.9-11.78-1.44-12.69-4.62-1.44-5.04,8.14-11.7,19.23-19.4,20.65-14.35,39.55-22.49,51.98-27.36,19.41-7.61,29.15-11.42,38.37-10.95,16.69.86,30.23,9.5,41.11,16.43,5.37,3.43,9.25,6.45,12.99,9.37,5.83,4.55,10.86,8.47,19.77,12.48,4.21,1.89,11.26,5.06,20.87,6.67,3.77.63,6.79.83,8.78.96,2.36.16,3.24.22,3.29.77.01.16-.06.32-.23.49-1.96,1.95-19.17,7.05-38.3,5.24-8.2-.77-12.51-2.39-17.97-4.44-5.36-2.01-11.43-4.29-23.05-6.5-8.85-1.68-18.01-3.42-30-2.73-15.93.92-31.45,5.67-34.68,9.31-.43.49-.64.94-.62,1.36.15,2.47,8.33,4.52,13.45,5.23,5.34.75,9.45.19,10.8,0,.2-.03,14.07-1.84,35.64,0,7.63.65,11.01,2.03,14.92,3.63,3.47,1.42,7.41,3.03,15.17,4.57,18.7,3.7,34.54,2.07,54.58,0,12.48-1.29,19.27-1.77,32.8-2.73,13.6-.97,16.4-.94,16.66.19h0c.27,1.19-2.77,2.38-11.61,5.63-5.4,1.99-12.8,4.72-21.33,8.32-11.84,5-24.09,10.17-38.22,19.11-8.73,5.53-12.98,9.24-16.08,11.95-3.44,3.01-5.71,4.99-11.3,7.21-7.43,2.94-14.8,3.96-21.57,3.96ZM144.49,307.68c-8.7,0-18.37,3.79-36.64,10.95-12.4,4.86-31.27,12.98-51.88,27.3-10.93,7.6-20.37,14.16-19.03,18.86.82,2.87,5.37,3.43,12.27,4.27,5.5.67,12.34,1.5,20.35,3.76,7.3,2.06,10.47,3.93,25.73,12.91,4.06,2.39,9.12,5.37,15.32,8.98,38.56,22.44,42.91,23.62,46.4,24.57,8.92,2.43,27.47,7.48,46.3,0,5.5-2.18,7.75-4.15,11.15-7.12,3.11-2.72,7.38-6.45,16.14-11.99,14.17-8.97,26.44-14.15,38.3-19.15,8.54-3.6,15.94-6.33,21.35-8.32,6.42-2.37,11.49-4.23,11.3-5.05h0c-.2-.87-6.81-.47-16.14.19-13.53.96-20.31,1.44-32.79,2.73-20.09,2.07-35.96,3.71-54.73,0-7.81-1.55-11.77-3.17-15.26-4.6-3.87-1.59-7.22-2.96-14.77-3.6-21.52-1.83-35.34-.02-35.47,0-1.43.19-5.59.76-11,0-.14-.02-13.65-1.95-13.88-5.7-.03-.55.22-1.13.74-1.72,3.65-4.11,20.35-8.63,35.02-9.48,12.06-.7,21.24,1.05,30.12,2.74,11.66,2.22,17.75,4.5,23.13,6.52,5.42,2.03,9.71,3.64,17.84,4.41,19.95,1.88,37.62-3.88,37.99-5.21-.15-.12-1.45-.21-2.83-.3-2-.13-5.03-.34-8.83-.97-9.67-1.62-16.76-4.8-21-6.7-8.97-4.03-14.02-7.97-19.88-12.54-3.74-2.92-7.6-5.93-12.95-9.34-10.83-6.91-24.31-15.51-40.87-16.36-.5-.03-1.01-.04-1.51-.04Z"/>
      </g>
      <g>
        <path class="cls-2" d="M269,200.88c-2.47,1.14-5.59-10.77-19.13-19.13-11.51-7.11-21.21-5.89-24.6-13.66-1.04-2.38-.43-3.19,0-10.93.99-17.86-1.83-20.92,0-35.53.22-1.75.92-7,2.73-13.66,3.11-11.46,5.46-20.11,10.93-21.86,1.73-.55,5.18-.87,19.13,10.93,9.6,8.12,11.6,11.35,24.6,24.6,12.03,12.27,16.74,16.06,19.13,24.6,2.22,7.94.39,12.7,0,13.66-2.26,5.54-6.28,6.2-10.93,10.93-10.13,10.29-8.37,24.7-10.93,24.6-1.77-.07-2.35-6.95-5.47-21.86-2.28-10.89-3.42-16.34-5.47-21.86-4.82-12.98-13.52-25.7-16.4-24.6-2.36.91-.48,11.07,0,13.66,1.93,10.39,5.83,17.12,8.2,21.86,8.57,17.15,11.29,36.83,8.2,38.26Z"/>
        <path class="cls-2" d="M268.66,201.21c-1.01,0-2.06-1.53-3.66-3.87-2.65-3.86-7.08-10.33-15.26-15.38-4.67-2.89-9.01-4.38-12.83-5.7-5.48-1.89-9.82-3.38-11.86-8.08-.75-1.72-.67-2.64-.41-5.7.12-1.34.26-3.01.39-5.35.47-8.4.08-13.56-.25-18.11-.38-5.2-.72-9.68.26-17.44.55-4.38,1.5-9.12,2.74-13.7,3.19-11.75,5.49-20.24,11.1-22.04,1.5-.48,4.64-1.48,19.37,10.98,6.31,5.34,9.35,8.57,14.37,13.91,2.58,2.74,5.78,6.15,10.24,10.7,1.62,1.65,3.11,3.15,4.48,4.53,8.67,8.74,12.63,12.73,14.72,20.17,2.07,7.39.68,12.13,0,13.83-1.45,3.56-3.64,5.16-6.18,7.02-1.45,1.06-3.1,2.27-4.8,4-6.43,6.53-8.05,14.84-9.02,19.8-.6,3.07-.98,4.91-2.1,4.87-1.45-.06-2.06-3.27-3.53-11.04-.56-2.97-1.26-6.68-2.17-11.02-2.27-10.87-3.41-16.32-5.46-21.83-4.4-11.85-11.72-22.8-15.09-24.32-.4-.18-.73-.22-.99-.13-.81.31-1.87,2.47.16,13.38,1.69,9.13,4.92,15.43,7.28,20.03.32.62.62,1.21.9,1.77,7.81,15.64,10.6,32.84,9.02,37.35-.23.64-.54,1.06-.94,1.25l-.1-.23.1.23c-.15.07-.3.1-.45.1ZM240.23,86.13c-.56,0-.93.12-1.22.21-5.34,1.71-7.74,10.53-10.77,21.69-1.24,4.56-2.18,9.27-2.73,13.63-.97,7.7-.64,12.17-.25,17.34.34,4.57.72,9.74.25,18.17-.13,2.34-.28,4.09-.39,5.36-.26,3.04-.33,3.85.37,5.46,1.96,4.5,6.2,5.96,11.57,7.81,3.85,1.33,8.21,2.83,12.93,5.74,8.28,5.11,12.74,11.63,15.41,15.53,1.63,2.38,2.71,3.95,3.48,3.59.27-.12.5-.45.68-.96,1.55-4.44-1.24-21.44-8.99-36.97-.28-.56-.58-1.15-.9-1.76-2.37-4.63-5.62-10.97-7.32-20.17-1.62-8.72-1.56-13.28.16-13.94.38-.15.84-.1,1.37.14,3.91,1.77,11.23,13.49,15.35,24.61,2.06,5.54,3.2,11.01,5.47,21.89.91,4.36,1.61,8.06,2.17,11.04,1.25,6.6,2,10.59,3.06,10.63,0,0,0,0,.02,0,.7,0,1.08-1.97,1.57-4.47.98-5.02,2.62-13.42,9.16-20.05,1.73-1.76,3.4-2.98,4.86-4.05,2.58-1.89,4.61-3.37,6.01-6.8.67-1.65,2.02-6.26,0-13.5-2.05-7.32-5.72-11.02-14.59-19.96-1.37-1.38-2.86-2.88-4.48-4.53-4.46-4.55-7.67-7.96-10.25-10.71-5.01-5.33-8.04-8.55-14.33-13.88-11.34-9.59-15.69-11.1-17.68-11.1Z"/>
      </g>
    </g>
    <g>
      <path class="cls-2" d="M346.23,344.33c-.23,8.71-.47,12.79-2.73,13.66-3.85,1.48-9.23-8.04-21.86-21.86-17.6-19.27-22.16-17.21-30.06-30.06-7.41-12.06-9.36-23.56-10.93-32.8-1.22-7.16-3.44-21.02,0-38.26,3.13-15.68,9.4-26.47,16.4-38.26,8.65-14.59,11.84-15.6,21.86-30.06,21.85-31.51,24.76-52.7,32.8-51.93,4.65.45,4.95,7.66,16.4,27.33,5.11,8.78,4.81,6.93,16.4,24.6,12.12,18.48,18.31,27.98,24.6,40.99,5.33,11.04,8.46,17.53,10.93,27.33,2.47,9.83,7.1,28.21,0,49.19-1.04,3.07-5.47,15.48-16.4,27.33-6.4,6.94-9.46,7.64-16.4,13.66-20.33,17.64-22.82,36.51-27.33,35.53-4.02-.88-2.76-15.98-2.73-71.06.02-37.23-.55-34.9,0-38.26.29-1.77,1.61-9.46,0-19.13-.11-.67-2.34-13.67-5.47-13.66-2.63,0-4.74,9.19-5.47,13.66-1.02,6.25-.24,8.7,0,21.86.08,4.55,0,9.11,0,13.66v21.86c.05,13.95.61,31.29,0,54.66Z"/>
      <path class="cls-2" d="M360.23,361.02c-.13,0-.26-.01-.4-.04-3.32-.72-3.26-9.06-3.06-40.07.06-8.43.12-18.92.13-31.23,0-18.64-.13-27.23-.2-31.85-.07-4.48-.08-4.75.2-6.45v-.09c1.31-7.84.72-14.64,0-18.96-.62-3.74-2.76-13.46-5.22-13.46h0c-2.22,0-4.34,8.05-5.22,13.46-.67,4.09-.56,6.56-.34,11.49.12,2.6.26,5.83.34,10.33.06,3.04.04,6.13.02,9.12,0,1.52-.02,3.04-.02,4.55v21.86c.01,3.78.07,7.84.12,12.14.14,11.35.32,25.48-.12,42.52h-.25s.25,0,.25,0c-.23,8.72-.44,12.95-2.89,13.89-2.75,1.06-5.98-2.85-11.85-9.95-2.74-3.32-6.15-7.44-10.29-11.98-8.25-9.04-13.57-13.32-17.84-16.76-4.84-3.9-8.04-6.48-12.25-13.34-7.44-12.1-9.39-23.62-10.97-32.88-1.14-6.72-3.52-20.72,0-38.35,3.2-16.04,9.92-27.38,16.43-38.34,5-8.42,8.19-12.35,11.89-16.89,2.69-3.31,5.74-7.06,9.99-13.18,10.21-14.73,16.26-27.16,20.68-36.23,5.09-10.47,7.89-16.22,12.35-15.8,2.88.28,4.1,2.87,7.06,9.13,2.04,4.32,4.83,10.24,9.53,18.32,2.67,4.58,3.87,6.28,6.04,9.35,2.04,2.87,4.82,6.81,10.35,15.23,11.73,17.88,18.19,27.72,24.61,41.02,5.29,10.95,8.48,17.55,10.95,27.38,2.49,9.88,7.12,28.28,0,49.33-1.54,4.55-6.22,16.33-16.45,27.42-3.88,4.2-6.51,6.11-9.56,8.32-2.02,1.47-4.12,2.98-6.86,5.36-12.1,10.5-17.76,21.24-21.5,28.35-2.35,4.46-3.83,7.28-5.65,7.28ZM351.7,218.37c3.32,0,5.48,12.45,5.71,13.87.73,4.36,1.32,11.22.01,19.13v.08c-.29,1.66-.28,1.92-.21,6.36.07,4.62.21,13.21.2,31.86,0,12.31-.07,22.8-.13,31.23-.19,29.13-.25,38.94,2.67,39.58,1.62.35,3.17-2.56,5.5-6.98,3.76-7.14,9.44-17.93,21.62-28.5,2.76-2.4,4.96-3.99,6.89-5.39,3.03-2.19,5.64-4.09,9.48-8.25,10.16-11.02,14.82-22.72,16.34-27.24,7.08-20.92,2.47-39.22,0-49.05-2.46-9.78-5.64-16.36-10.91-27.27-6.16-12.75-11.99-21.77-24.59-40.98-5.52-8.42-8.31-12.35-10.34-15.22-2.19-3.09-3.39-4.79-6.07-9.39-4.71-8.1-7.51-14.03-9.55-18.36-2.87-6.08-4.06-8.6-6.65-8.85-4.11-.4-6.86,5.26-11.85,15.52-4.42,9.09-10.48,21.54-20.71,36.3-4.26,6.14-7.31,9.9-10.01,13.21-3.69,4.53-6.87,8.44-11.84,16.83-6.78,11.43-13.19,22.23-16.37,38.18-3.5,17.54-1.13,31.48,0,38.17,1.56,9.22,3.51,20.69,10.9,32.71,4.17,6.78,7.34,9.34,12.14,13.21,4.28,3.45,9.61,7.75,17.89,16.81,4.15,4.54,7.56,8.68,10.31,12,5.53,6.69,8.86,10.74,11.28,9.8,2.15-.83,2.36-5.18,2.57-13.44h0c.44-17.03.27-30.56.12-42.5-.05-4.3-.11-8.37-.12-12.15v-21.86c0-1.52,0-3.04.02-4.56.02-2.98.04-6.07-.02-9.1-.08-4.49-.22-7.72-.34-10.31-.22-4.97-.33-7.46.34-11.6.23-1.42,2.36-13.87,5.71-13.87h0Z"/>
    </g>
    <g>
      <path class="cls-2" d="M343.49,382.59c-3.49-2.99-9.49.2-24.6,5.47-18.49,6.45-17.88,4.61-24.6,8.2-6.4,3.42-15.93,8.52-21.86,19.13-8.6,15.39-3.79,31.9-2.73,35.53,3.44,11.79,10.54,18.95,24.6,32.8,20.61,20.29,24.75,16.52,38.26,32.8,9.25,11.14,13.07,19.85,19.13,19.13,4.96-.59,6.17-6.88,13.66-16.4,3.53-4.48,9.69-9.43,21.86-19.13,21.81-17.38,25.63-18.2,32.8-27.33,7.07-9.02,10.08-16.81,10.93-19.13,2.53-6.9,6.73-18.36,2.73-30.06-2.77-8.1-8.14-12.44-16.4-19.13-12.35-10-23.45-13.54-40.99-19.13-17.04-5.43-20.84-4.38-21.86-2.73-1.17,1.89,1.41,4.4,2.73,10.93,1.21,5.98.38,10.45,0,13.66-2.28,19.24,6.58,35.86,0,57.39-1.25,4.07-2.91,7.88-5.47,8.2-3.84.48-7.66-7.13-8.2-8.2-7.26-14.47-.52-31.12,2.73-57.39.03-.24.71-6.02,0-13.66-.58-6.22-.87-9.34-2.73-10.93Z"/>
      <path class="cls-2" d="M350.99,535.93c-4.12,0-7.27-4.27-11.91-10.55-1.92-2.61-4.1-5.56-6.72-8.71-6.95-8.37-11.35-11.38-16.93-15.2-5.31-3.63-11.33-7.75-21.32-17.58-13.63-13.42-21.14-20.81-24.66-32.9-3.86-13.24-2.91-25.59,2.75-35.72,5.97-10.68,15.6-15.83,21.96-19.23,3.51-1.88,5.01-2.27,8.28-3.14,2.97-.79,7.46-1.97,16.35-5.07,2.86-1,5.41-1.93,7.65-2.74,9.78-3.56,14.25-5.19,17.19-2.68h0c1.94,1.66,2.23,4.82,2.82,11.1.72,7.75,0,13.66,0,13.72-.9,7.28-2.09,13.92-3.13,19.78-2.81,15.72-4.84,27.08.38,37.47,1,2,4.57,8.5,7.94,8.06,2.62-.33,4.25-4.74,5.26-8.02,3.82-12.51,2.4-23.46,1.02-34.06-.97-7.5-1.98-15.25-1.03-23.29.04-.37.09-.75.14-1.15.39-3.03.93-7.18-.14-12.44-.59-2.91-1.42-4.98-2.08-6.64-.8-2.01-1.33-3.33-.62-4.48,2.04-3.28,12.91-.32,22.15,2.63,17.28,5.51,28.69,9.15,41.08,19.17,8.24,6.67,13.69,11.08,16.48,19.24,4.03,11.79-.21,23.33-2.74,30.23-1.34,3.66-4.55,11.01-10.97,19.2-4.67,5.96-7.88,8.36-15.64,14.14-4.04,3.01-9.57,7.14-17.2,13.23-11.76,9.37-18.24,14.54-21.82,19.09-2.76,3.51-4.68,6.6-6.22,9.08-2.72,4.38-4.36,7.02-7.61,7.41-.25.03-.49.04-.73.04ZM340.05,381.69c-2.82,0-6.92,1.5-13.41,3.86-2.25.82-4.79,1.75-7.66,2.75-8.9,3.11-13.41,4.3-16.38,5.09-3.24.86-4.72,1.25-8.18,3.1-6.32,3.38-15.86,8.48-21.76,19.03-5.59,10.01-6.53,22.23-2.71,35.34,3.35,11.49,9.94,18.32,24.53,32.69,9.96,9.8,15.96,13.91,21.25,17.53,5.61,3.84,10.04,6.87,17.03,15.29,2.62,3.16,4.81,6.12,6.73,8.73,4.8,6.51,7.96,10.81,12.17,10.31,3.01-.36,4.6-2.92,7.24-7.18,1.55-2.5,3.48-5.6,6.26-9.13,3.62-4.6,10.11-9.77,21.9-19.17,7.64-6.09,13.17-10.22,17.21-13.24,7.71-5.76,10.91-8.15,15.54-14.05,6.38-8.13,9.56-15.43,10.89-19.06,2.51-6.83,6.7-18.27,2.73-29.9-2.74-8.03-8.14-12.4-16.32-19.02-12.31-9.96-23.69-13.59-40.91-19.08-13.11-4.18-20.17-5.11-21.58-2.84-.58.93-.11,2.1.66,4.03.64,1.59,1.51,3.77,2.11,6.72,1.08,5.34.54,9.54.15,12.6-.05.4-.1.78-.14,1.15-.95,7.98.01,15.36,1.03,23.17,1.38,10.65,2.82,21.66-1.04,34.27-1.13,3.71-2.8,8.01-5.67,8.37-3.63.45-7.12-5.68-8.45-8.33-5.29-10.54-3.25-21.97-.42-37.79,1.05-5.85,2.23-12.49,3.13-19.75,0-.06.72-5.91,0-13.61-.57-6.15-.86-9.23-2.65-10.77h0c-.88-.75-1.93-1.09-3.28-1.09Z"/>
    </g>
  </g>
  <g>
    <path class="cls-4" d="M74.02,302.58v-3.33c3.55-.22,6.22-.67,8-1.33,1.78-.67,2.97-2,3.58-4,.61-2,.92-5,.92-9v-82.68c0-4.11-.31-7.14-.92-9.08-.61-1.94-1.83-3.28-3.67-4-1.83-.72-4.47-1.14-7.92-1.25v-3.33c2.89.11,6.67.22,11.33.33,4.67.11,9.67.17,15,.17,4.67,0,9.28-.05,13.84-.17,4.55-.11,8.33-.22,11.33-.33v3.33c-3.56.11-6.25.53-8.08,1.25-1.83.72-3.03,2.06-3.58,4-.56,1.95-.83,4.97-.83,9.08v82.68c0,4,.3,7,.92,9,.61,2,1.83,3.33,3.67,4,1.83.67,4.47,1.11,7.92,1.33v3.33c-3-.22-6.78-.36-11.33-.42-4.56-.05-9.17-.08-13.84-.08-5.33,0-10.33.03-15,.08-4.67.06-8.45.2-11.33.42ZM102.19,244.91v-3.33h65.84v3.33h-65.84ZM144.7,302.58v-3.33c3.55-.22,6.22-.67,8-1.33,1.78-.67,2.97-2,3.58-4,.61-2,.92-5,.92-9v-82.68c0-4.11-.31-7.14-.92-9.08-.61-1.94-1.83-3.28-3.67-4-1.83-.72-4.47-1.14-7.92-1.25v-3.33c3,.11,6.92.22,11.75.33,4.83.11,9.64.17,14.42.17,5.11,0,9.92-.05,14.42-.17,4.5-.11,8.14-.22,10.92-.33v3.33c-3.56.11-6.25.53-8.08,1.25-1.83.72-3.03,2.06-3.58,4-.56,1.95-.83,4.97-.83,9.08v82.68c0,4,.3,7,.92,9,.61,2,1.83,3.33,3.67,4,1.83.67,4.47,1.11,7.92,1.33v3.33c-2.78-.22-6.42-.36-10.92-.42-4.5-.05-9.31-.08-14.42-.08-4.78,0-9.58.03-14.42.08-4.83.06-8.75.2-11.75.42Z"/>
    <path class="cls-4" d="M263.04,184.23l40.5,104.34c1.55,4,3.31,6.75,5.25,8.25,1.94,1.5,3.69,2.31,5.25,2.42v3.33c-3.33-.22-7.25-.36-11.75-.42-4.5-.05-9.03-.08-13.58-.08-5.11,0-9.95.03-14.5.08-4.56.06-8.17.2-10.83.42v-3.33c5.67-.22,9.25-1.19,10.75-2.92,1.5-1.72,1.14-5.42-1.08-11.08l-28.34-77.51,3-4.33-25.34,66.01c-2.45,6.11-3.92,11.11-4.42,15-.5,3.89-.22,6.89.83,9,1.06,2.11,2.78,3.58,5.17,4.42,2.39.83,5.25,1.31,8.59,1.42v3.33c-3.67-.22-7.17-.36-10.5-.42-3.33-.05-6.72-.08-10.17-.08-2.45,0-4.75.03-6.92.08-2.17.06-4.08.2-5.75.42v-3.33c2.33-.44,4.72-1.94,7.17-4.5,2.44-2.55,4.83-6.89,7.17-13l38-97.51c1.78.11,3.69.17,5.75.17s3.97-.05,5.75-.17ZM274.71,254.58v3.33h-49.67l1.67-3.33h48.01Z"/>
    <path class="cls-4" d="M428.39,184.57v3.33c-3.56.45-6.22,1.36-8,2.75-1.78,1.39-2.97,3.58-3.58,6.58-.61,3-.92,7.23-.92,12.67v93.01c-1.33-.11-2.7-.17-4.08-.17s-2.86.05-4.42.17l-72.34-91.68v64.01c0,6.11.33,10.81,1,14.08.67,3.28,2.14,5.61,4.42,7,2.28,1.39,5.86,2.36,10.75,2.92v3.33c-2.11-.22-4.89-.36-8.34-.42-3.45-.05-6.67-.08-9.67-.08-2.56,0-5.17.03-7.83.08-2.67.06-4.89.2-6.67.42v-3.33c3.55-.55,6.22-1.5,8-2.83,1.78-1.33,2.97-3.53,3.58-6.58.61-3.06.92-7.25.92-12.58v-75.01c0-4.11-.31-7.14-.92-9.08-.61-1.94-1.83-3.28-3.67-4-1.83-.72-4.47-1.14-7.92-1.25v-3.33c1.78.11,4,.22,6.67.33,2.67.11,5.28.17,7.83.17s5.22-.05,7.67-.17c2.44-.11,4.67-.22,6.67-.33l64.51,79.51v-52.17c0-6.11-.33-10.81-1-14.08-.67-3.28-2.14-5.64-4.42-7.08-2.28-1.44-5.86-2.39-10.75-2.83v-3.33c2.11.11,4.89.22,8.34.33,3.44.11,6.67.17,9.67.17,2.67,0,5.31-.05,7.92-.17,2.61-.11,4.8-.22,6.58-.33Z"/>
    <path class="cls-4" d="M499.39,182.23c11.78,0,22.09,2.39,30.92,7.17,8.83,4.78,15.69,11.64,20.59,20.59,4.89,8.95,7.34,19.81,7.34,32.59s-2.5,23.34-7.5,32.67c-5,9.33-11.95,16.61-20.84,21.84-8.89,5.22-19.11,7.83-30.67,7.83s-22.09-2.39-30.92-7.17c-8.83-4.78-15.7-11.67-20.59-20.67-4.89-9-7.34-19.84-7.34-32.5s2.53-23.34,7.58-32.67c5.06-9.33,12-16.61,20.84-21.84,8.83-5.22,19.03-7.83,30.59-7.83ZM498.72,185.23c-6.22,0-11.64,2.5-16.25,7.5-4.61,5-8.17,11.89-10.67,20.67-2.5,8.78-3.75,18.95-3.75,30.5s1.42,22.03,4.25,30.75c2.83,8.72,6.67,15.45,11.5,20.17,4.83,4.72,10.19,7.08,16.08,7.08,6.22,0,11.64-2.5,16.25-7.5,4.61-5,8.17-11.92,10.67-20.75,2.5-8.83,3.75-18.97,3.75-30.42s-1.42-22.17-4.25-30.84c-2.83-8.67-6.67-15.36-11.5-20.09-4.83-4.72-10.2-7.08-16.08-7.08Z"/>
    <path class="cls-4" d="M622.57,184.57v3.33c-3.56.11-6.25.53-8.08,1.25-1.83.72-3.03,2.06-3.58,4-.56,1.95-.83,4.97-.83,9.08v82.68c0,4,.3,7,.92,9,.61,2,1.83,3.33,3.67,4,1.83.67,4.47,1.11,7.92,1.33v3.33c-3-.22-6.78-.36-11.33-.42-4.56-.05-9.17-.08-13.84-.08-5.33,0-10.33.03-15,.08-4.67.06-8.45.2-11.33.42v-3.33c3.55-.22,6.22-.67,8-1.33,1.78-.67,2.97-2,3.58-4,.61-2,.92-5,.92-9v-82.68c0-4.11-.31-7.14-.92-9.08-.61-1.94-1.83-3.28-3.67-4-1.83-.72-4.47-1.14-7.92-1.25v-3.33c2.89.11,6.67.22,11.33.33,4.67.11,9.67.17,15,.17,4.67,0,9.28-.05,13.84-.17,4.55-.11,8.33-.22,11.33-.33Z"/>
    <path class="cls-4" d="M147.36,384.25l40.5,104.34c1.55,4,3.31,6.75,5.25,8.25,1.94,1.5,3.69,2.31,5.25,2.42v3.33c-3.33-.22-7.25-.36-11.75-.42-4.5-.05-9.03-.08-13.58-.08-5.11,0-9.95.03-14.5.08-4.56.06-8.17.2-10.83.42v-3.33c5.67-.22,9.25-1.19,10.75-2.92,1.5-1.72,1.14-5.42-1.08-11.08l-28.34-77.51,3-4.33-25.34,66.01c-2.45,6.11-3.92,11.11-4.42,15-.5,3.89-.22,6.89.83,9,1.06,2.11,2.78,3.58,5.17,4.42,2.39.83,5.25,1.31,8.59,1.42v3.33c-3.67-.22-7.17-.36-10.5-.42-3.33-.05-6.72-.08-10.17-.08-2.45,0-4.75.03-6.92.08-2.17.06-4.08.2-5.75.42v-3.33c2.33-.44,4.72-1.94,7.17-4.5,2.44-2.55,4.83-6.89,7.17-13l38-97.51c1.78.11,3.69.17,5.75.17s3.97-.05,5.75-.17ZM159.03,454.6v3.33h-49.67l1.67-3.33h48.01Z"/>
    <path class="cls-4" d="M255.37,384.59v3.33c-3.78.11-6.64.53-8.58,1.25-1.94.72-3.25,2.06-3.92,4-.67,1.95-1,4.97-1,9.08v84.68c0,3.45.25,6,.75,7.67.5,1.67,1.5,2.78,3,3.33,1.5.56,3.75.83,6.75.83h8.17c3.78,0,7.33-.89,10.67-2.67,3.33-1.78,6.33-4.31,9-7.59,2.67-3.28,4.89-7.19,6.67-11.75,1.78-4.56,3.11-9.61,4-15.17h3.83c-.33,3.78-.5,8.67-.5,14.67,0,2.56.05,6.28.17,11.17.11,4.89.44,9.95,1,15.17-5.67-.22-12.06-.36-19.17-.42-7.11-.05-13.45-.08-19-.08h-10.67c-4.33,0-9,.03-14,.08-5,.06-10.06.11-15.17.17-5.11.06-9.95.14-14.5.25v-3.33c3.55-.22,6.22-.67,8-1.33,1.78-.67,2.97-2,3.58-4,.61-2,.92-5,.92-9v-82.68c0-4.11-.31-7.14-.92-9.08-.61-1.94-1.83-3.28-3.67-4-1.83-.72-4.47-1.14-7.92-1.25v-3.33c2.78.11,6.53.22,11.25.33,4.72.11,9.75.17,15.08.17,4.89,0,9.69-.05,14.42-.17,4.72-.11,8.64-.22,11.75-.33Z"/>
    <path class="cls-4" d="M357.21,384.59v3.33c-3.78.11-6.64.53-8.58,1.25-1.94.72-3.25,2.06-3.92,4-.67,1.95-1,4.97-1,9.08v84.68c0,3.45.25,6,.75,7.67.5,1.67,1.5,2.78,3,3.33,1.5.56,3.75.83,6.75.83h8.17c3.78,0,7.33-.89,10.67-2.67,3.33-1.78,6.33-4.31,9-7.59,2.67-3.28,4.89-7.19,6.67-11.75,1.78-4.56,3.11-9.61,4-15.17h3.83c-.33,3.78-.5,8.67-.5,14.67,0,2.56.05,6.28.17,11.17.11,4.89.44,9.95,1,15.17-5.67-.22-12.06-.36-19.17-.42-7.11-.05-13.45-.08-19-.08h-10.67c-4.33,0-9,.03-14,.08-5,.06-10.06.11-15.17.17-5.11.06-9.95.14-14.5.25v-3.33c3.55-.22,6.22-.67,8-1.33,1.78-.67,2.97-2,3.58-4,.61-2,.92-5,.92-9v-82.68c0-4.11-.31-7.14-.92-9.08-.61-1.94-1.83-3.28-3.67-4-1.83-.72-4.47-1.14-7.92-1.25v-3.33c2.78.11,6.53.22,11.25.33,4.72.11,9.75.17,15.08.17,4.89,0,9.69-.05,14.42-.17,4.72-.11,8.64-.22,11.75-.33Z"/>
    <path class="cls-4" d="M495.73,384.59c-.45,4.89-.75,9.61-.92,14.17-.17,4.56-.25,8.06-.25,10.5,0,2.22.05,4.33.17,6.33.11,2,.22,3.67.33,5h-3.83c-1.11-8.11-2.83-14.53-5.17-19.25-2.33-4.72-5.36-8.06-9.08-10-3.73-1.94-8.08-2.92-13.08-2.92h-6.83c-3.22,0-5.67.28-7.33.83-1.67.56-2.78,1.67-3.33,3.33-.56,1.67-.83,4.22-.83,7.67v86.68c0,3.33.28,5.86.83,7.58.55,1.72,1.67,2.86,3.33,3.42,1.67.56,4.11.83,7.33.83h8.17c5,0,9.42-1.08,13.25-3.25,3.83-2.17,7.11-5.86,9.83-11.08,2.72-5.22,4.81-12.28,6.25-21.17h3.83c-.33,3.56-.5,8.22-.5,14,0,2.56.05,6.17.17,10.83.11,4.67.44,9.5,1,14.5-5.67-.22-12.06-.36-19.17-.42-7.11-.05-13.45-.08-19-.08h-10.67c-4.33,0-9,.03-14,.08-5,.06-10.06.11-15.17.17-5.11.06-9.95.14-14.5.25v-3.33c3.55-.22,6.22-.67,8-1.33,1.78-.67,2.97-2,3.58-4,.61-2,.92-5,.92-9v-82.68c0-4.11-.31-7.14-.92-9.08-.61-1.94-1.83-3.28-3.67-4-1.83-.72-4.47-1.14-7.92-1.25v-3.33c4.55.11,9.39.2,14.5.25,5.11.06,10.17.11,15.17.17,5,.06,9.67.08,14,.08h10.67c5.11,0,10.92-.03,17.42-.08,6.5-.05,12.31-.19,17.42-.42ZM469.72,441.59v3.33h-29.17v-3.33h29.17ZM474.56,419.59c-.45,6.33-.64,11.17-.58,14.5.05,3.33.08,6.39.08,9.17s.06,5.83.17,9.17c.11,3.33.39,8.17.83,14.5h-3.83c-.56-3.89-1.58-7.5-3.08-10.83-1.5-3.33-3.64-6.03-6.42-8.08-2.78-2.06-6.39-3.08-10.83-3.08v-3.33c3.33,0,6.17-.69,8.5-2.08,2.33-1.39,4.25-3.22,5.75-5.5,1.5-2.28,2.69-4.69,3.58-7.25.89-2.56,1.56-4.94,2-7.17h3.83Z"/>
    <path class="cls-4" d="M609.4,384.42v3.33c-2.45,1-4.95,2.97-7.5,5.92-2.56,2.94-5.39,7.42-8.5,13.42l-31.5,62.34h-7.83l-39-72.17c-2-3.78-3.81-6.28-5.42-7.5-1.61-1.22-3.03-1.83-4.25-1.83v-3.5c3,.33,6.08.56,9.25.67,3.17.11,6.64.17,10.42.17,4.89,0,10.17-.08,15.83-.25,5.67-.17,10.83-.36,15.5-.58v3.5c-2.78,0-5.28.22-7.5.67-2.22.45-3.78,1.25-4.67,2.42-.89,1.17-.67,3.03.67,5.59l26.34,50.67-5.17,6.67,17.17-34.5c4.11-8,6.31-14.28,6.58-18.83.28-4.56-.83-7.81-3.33-9.75-2.5-1.94-6.03-2.97-10.58-3.08v-3.33c3.78.11,7.33.22,10.67.33,3.33.11,6.72.17,10.17.17,2.44,0,4.75-.05,6.92-.17,2.17-.11,4.08-.22,5.75-.33ZM573.73,443.09v41.84c0,4,.3,7,.92,9,.61,2,1.8,3.33,3.58,4,1.78.67,4.44,1.11,8,1.33v3.33c-3-.22-6.86-.36-11.58-.42-4.72-.05-9.42-.08-14.08-.08-5.22,0-10.17.03-14.83.08-4.67.06-8.33.2-11,.42v-3.33c3.55-.22,6.22-.67,8-1.33,1.78-.67,2.97-2,3.58-4,.61-2,.92-5,.92-9v-34.17l14.5,10.33,12-18Z"/>
  </g>
</svg>